#!OML:ASF F:\VICON\USERDATA\INSTALL\rory3\rory3.ASF
:FULLY-SPECIFIED
:DEGREES
27
root 0.15420142725592337 17.842399479572645 9.948173427257068 0.27334636752385716 -0.701701205344771 -2.062763283342787
lfemur -12.385913490773513 -1.2503498144239553 -20.249003323859448
ltibia 42.43264064352605
lfoot -2.6100623604154194 -5.235056256474264
ltoes -7.264792611003814
rfemur -14.869864223131414 3.0291974611296855 27.12397124865289
rtibia 48.56487412406881
rfoot -2.305890529425115 -6.834288202195936
rtoes 3.335898651073027
lowerback 12.424855795110187 0.5390763099199091 1.2100667618414207
upperback -0.25133485856202153 0.9966069228957644 1.5292616242045292
thorax -7.117915874731782 0.46638752586419063 0.775515447893433
lowerneck -17.702443062495856 -3.4570142221738833 -2.0486084151948742
upperneck 17.465598168979852 -4.539471842918939 1.9000439803655393
head 8.481796772072574 -2.099203440497618 0.4035682127751373
lclavicle -8.401101307994974e-16 -7.164702192748685e-16
lhumerus -39.09671787728273 -2.6226167163323284 86.93471079013663
lradius 61.37230092599539
lwrist 16.835754274388353
lhand -27.9377580165717 13.359587820172958
lfingers 7.125020000000057
lthumb -1.325606722213236 43.31264260941381
rclavicle -8.401101307994974e-16 -7.164702192748685e-16
rhumerus -37.5739293161425 -6.561763793594479 -85.96226262378408
rradius 61.97019893520261
rwrist -4.279930776856833
rhand -17.988728384982736 29.714058991918495
rfingers 7.125020000000057
rthumb 8.280950663904793 -0.09697698871075568
28
root 0.15265524605901176 17.84141911584109 9.895499508973923 0.2652909187053207 -0.7102184873878439 -2.070682632014607
lfemur -12.42708601980754 -1.2592729732487413 -20.26422051089314
ltibia 42.374870634577306
lfoot -2.6418015655711624 -5.252931510149971
ltoes -7.2863713921879265
rfemur -14.911285809144108 3.0195645819161188 27.10917026638611
rtibia 48.50381206402411
rfoot -2.3385995425738897 -6.846152063862467
rtoes 3.3109306030305916
lowerback 12.418367435940468 0.5356580010294436 1.2011303059237328
upperback -0.25322205489933586 0.991124377883839 1.5267498160880646
thorax -7.12258915447535 0.4639825416594186 0.7698228729916172
lowerneck -17.707277986009395 -3.459613370002003 -2.050027484777952
upperneck 17.453570870705207 -4.543394755201843 1.8957096106060867
head 8.478431190373225 -2.1008487813301198 0.40218883985019244
lclavicle -8.8918858581197e-16 -7.544718087881406e-16
lhumerus -39.12921514091111 -2.6429191623952373 86.91800494654618
lradius 61.27577278353291
lwrist 16.80325529922335
lhand -27.94505741776509 13.334804768443576
lfingers 7.125020000000057
lthumb -1.3326554082905255 43.287855742420625
rclavicle -8.8918858581197e-16 -7.544718087881406e-16
rhumerus -37.60395173315687 -6.599936342440022 -85.98689736246807
rradius 61.875170646285305
rwrist -4.307382001414695
rhand -17.992678335282783 29.693744506281362
rfingers 7.125020000000057
rthumb 8.277138656860249 -0.11728468234728871
29
root 0.15425844430454347 17.8424356315105 9.950115833079721 0.27364342062336483 -0.7013871216621271 -2.0624712490785218
lfemur -12.384395210707481 -1.2500207636105232 -20.24844217417357
ltibia 42.43477097302145
lfoot -2.6088919440326936 -5.234397087801175
ltoes -7.2639968708807325
rfemur -14.868336758828832 3.029552683624674 27.12451705035273
rtibia 48.56712585139117
rfoot -2.304684350358429 -6.833850709889852
rtoes 3.336819373955977
lowerback 12.425095060140045 0.5392023636350851 1.2103963029990599
upperback -0.25126526622346823 0.996809097476681 1.5293542497556527
thorax -7.11774354265396 0.4664762121718549 0.7757253675461868
lowerneck -17.70226476963497 -3.456918375879553 -2.0485560855199467
upperneck 17.466041688181782 -4.539327181425957 1.9002038147832685
head 8.481920881417436 -2.0991427668337352 0.40361907859428187
lclavicle -8.383003114450558e-16 -7.150688709198075e-16
lhumerus -39.09551950670105 -2.6218680424016227 86.93532683558986
lradius 61.37586050219706
lwrist 16.83695270808473
lhand -27.937488843519038 13.360501721123397
lfingers 7.125020000000057
lthumb -1.3253467945426762 43.31355665105609
rclavicle -8.383003114450558e-16 -7.150688709198075e-16
rhumerus -37.572822208117884 -6.560356140935252 -85.9613541920323
rradius 61.97370320273626
rwrist -4.278918484242991
rhand -17.988582726434597 29.714808109821092
rfingers 7.125020000000057
rthumb 8.281091235651129 -0.09622812127028454
30
root 0.15242485246215468 17.84127303365694 9.887650665954716 0.26409059119434863 -0.7114876318123585 -2.0718626794947537
lfemur -12.433221062113576 -1.2606025966208763 -20.26648799575309
ltibia 42.36626243252521
lfoot -2.646530965755191 -5.255595068597911
ltoes -7.289586806411519
rfemur -14.917457962969321 3.018129204423147 27.106964799427725
rtibia 48.49471331953459
rfoot -2.343473452051022 -6.847919875919312
rtoes 3.3072101604288533
lowerback 12.417400617556051 0.5351486451518687 1.1997987011764086
upperback -0.25350326253075567 0.9903074340044598 1.5263755362121205
thorax -7.123285511235729 0.4636241794167341 0.7689746329472892
lowerneck -17.707998429008597 -3.4600006642066408 -2.0502389377086234
upperneck 17.451778705262047 -4.543979301096476 1.8950637541948308
head 8.477929691276755 -2.1010939505206476 0.40198330204503735
lclavicle -8.965016755074708e-16 -7.601343552682925e-16
lhumerus -39.13405749798434 -2.645944392285999 86.91551563972946
lradius 61.261389303780156
lwrist 16.79841268711722
lhand -27.946145088019524 13.33111189179986
lfingers 7.125020000000057
lthumb -1.3337057199497973 43.284162297271514
rclavicle -8.965016755074708e-16 -7.601343552682925e-16
rhumerus -37.608425317919185 -6.605624363253684 -85.99056813925955
rradius 61.86101065693182
rwrist -4.311472457550527
rhand -17.99326691006228 29.69071748239594
rfingers 7.125020000000057
rthumb 8.276570636749804 -0.12031069416927813
31
root 0.15469536937092718 17.842712665980553 9.965000605503887 0.27591975635737837 -0.698980279547172 -2.0602333729802598
lfemur -12.372760539417136 -1.2474992274738403 -20.24414205044412
ltibia 42.45109581583117
lfoot -2.59992297303024 -5.229345838688532
ltoes -7.257899066548238
rfemur -14.85663170818246 3.0322747749282426 27.12869956154377
rtibia 48.58438097303658
rfoot -2.2954413277619055 -6.830498180085085
rtoes 3.3438749286802247
lowerback 12.426928562427237 0.540168320821649 1.212921596672835
upperback -0.2507319759554148 0.9983583734270495 1.5300640449143454
thorax -7.116422951596284 0.4671558206714413 0.7773339944469912
lowerneck -17.700898500738845 -3.456183899972324 -2.048155080079557
upperneck 17.469440402451212 -4.538218631721014 1.901428635521396
head 8.48287193877756 -2.0986778209050816 0.4040088664199282
lclavicle -8.244315570861442e-16 -7.043302543501982e-16
lhumerus -39.086336320993915 -2.6161309091267473 86.94004762888002
lradius 61.40313774831644
lwrist 16.84613637744362
lhand -27.93542615425768 13.36750499896928
lfingers 7.125020000000057
lthumb -1.3233549531993787 43.320561007032005
rclavicle -8.244315570861442e-16 -7.043302543501982e-16
rhumerus -37.564338372864164 -6.549569214104369 -85.95439282498403
rradius 62.0005566152124
rwrist -4.271161225173862
rhand -17.98746653623612 29.720548645279216
rfingers 7.125020000000057
rthumb 8.282168445381993 -0.09048950511846124
32
root 0.15605161417743413 17.84357259961709 10.011203940696799 0.2829856556491592 -0.6915092796672447 -2.0532868549857795
lfemur -12.336645736841158 -1.2396722096327715 -20.230794177034905
ltibia 42.501769226402374
lfoot -2.572082683521406 -5.213666421547065
ltoes -7.238971071582215
rfemur -14.82029844334959 3.0407243295025737 27.141682357719674
rtibia 48.63794203171175
rfoot -2.2667503636642943 -6.820091701981168
rtoes 3.3657758453087587
lowerback 12.432619876902061 0.5431667169274809 1.2207602781618814
upperback -0.24907660707856266 1.003167430226936 1.5322672968486604
thorax -7.112323748091398 0.46926537118464656 0.7823272805907243
lowerneck -17.696657510149777 -3.4539040373337975 -2.046910332209149
upperneck 17.479990240241168 -4.534777618843158 1.9052305615100709
head 8.485824084819521 -2.0972345974565805 0.40521879405934685
lclavicle -7.813820103350881e-16 -6.709968659224187e-16
lhumerus -39.05783109462736 -2.5983224613929328 86.95470128891233
lradius 61.48780815574217
lwrist 16.874643105097775
lhand -27.929023427993176 13.389243644649685
lfingers 7.125020000000057
lthumb -1.3171721436398545 43.342302999300585
rclavicle -7.813820103350881e-16 -6.709968659224187e-16
rhumerus -37.53800397736391 -6.51608586737482 -85.93278427323955
rradius 62.083911414489975
rwrist -4.247082171041513
rhand -17.984001806752214 29.738367653618766
rfingers 7.125020000000057
rthumb 8.285512176871459 -0.07267645443481854
33
root 0.15486858205877413 17.84282249233037 9.97090146045121 0.27682217707266005 -0.6980261214454063 -2.0593461990370097
lfemur -12.36814814053809 -1.2464996005690419 -20.242437327949215
ltibia 42.45756756606777
lfoot -2.5963673528699815 -5.227343343288059
ltoes -7.2554816793126236
rfemur -14.85199140841522 3.033353909057942 27.130357658231482
rtibia 48.591221519000364
rfoot -2.291777063770313 -6.829169117636512
rtoes 3.346672002348149
lowerback 12.427655428161827 0.5405512607202787 1.2139227131994232
upperback -0.2505205606628643 0.9989725616991966 1.5303454330440662
thorax -7.115899422176148 0.4674252417322911 0.777971711553811
lowerneck -17.700356862993548 -3.4558927275131586 -2.047996107213235
upperneck 17.470787774069652 -4.53777916305973 1.9019141981693295
head 8.483248971853294 -2.0984934997475153 0.40416339222346936
lclavicle -8.189334879561708e-16 -7.000730835378785e-16
lhumerus -39.08269577848054 -2.613856504768805 86.94191911980026
lradius 61.41395142205804
lwrist 16.849777111693815
lhand -27.934608430628064 13.370281348217135
lfingers 7.125020000000057
lthumb -1.322565316212669 43.32333778368908
rclavicle -8.189334879561708e-16 -7.000730835378785e-16
rhumerus -37.56097507782662 -6.5452928913805435 -85.95163309067192
rradius 62.011202266173456
rwrist -4.26808597086353
rhand -17.987024038610553 29.722824398384002
rfingers 7.125020000000057
rthumb 8.282595489759196 -0.08821451289518109
